<svg width="45" height="38" viewBox="0 0 45 38" fill="none" xmlns="http://www.w3.org/2000/svg">
<path id="Vector" d="M44.9983 16.0732C44.9518 11.7724 43.2381 7.73822 40.1688 4.71334C37.0898 1.67413 32.9879 0 28.6128 0H16.3855C7.35117 0.00163978 0 7.2185 0 16.0875C0 24.9572 7.35117 32.1757 16.3855 32.1781H25.4216C25.6592 32.1781 25.7846 32.2766 25.8472 32.3595C25.9997 32.5597 25.9323 32.8405 25.9082 32.9201C25.8134 33.2506 25.5741 33.7102 25.1068 34.4562C24.747 35.0413 24.4129 35.5342 24.3423 35.6391C23.838 36.3819 23.6646 37.0111 23.8525 37.4117C23.9938 37.7137 24.3487 37.8999 24.9044 37.9645C25.0923 37.9858 25.3525 38 25.5999 38C25.73 38 25.8552 37.996 25.9661 37.9874C27.1193 37.8904 28.6772 37.7105 30.4985 37.1736C33.1533 36.3898 36.9583 34.7283 40.0147 31.2618C43.2846 27.5642 45.0097 22.4362 45 16.4313L44.9983 16.0732ZM39.9263 26.1322C38.3024 29.3069 35.7567 31.7277 32.3598 33.3293C31.2115 33.8678 29.9812 34.2977 28.7011 34.6068L28.3719 34.6863L28.5855 34.2274C28.6642 34.0618 28.7429 33.897 28.8055 33.7243C28.9244 33.3694 29.0416 32.9798 29.0464 32.4737C29.0464 32.0526 28.9516 31.6267 28.7718 31.2427C28.4826 30.6229 27.9302 30.0772 27.2508 29.746C26.5601 29.4054 25.7443 29.2398 24.758 29.2398H16.3854C12.8101 29.2398 9.44701 27.8716 6.91409 25.3876C4.38442 22.9021 2.99206 19.5988 2.99039 16.0873C2.99206 12.5782 4.38451 9.27574 6.91409 6.78862C9.44692 4.30547 12.8101 2.9372 16.3854 2.9372H28.6128C32.1752 2.93797 35.5271 4.30538 38.0487 6.78698C40.5623 9.2678 41.9677 12.5765 42.0062 16.1023L42.0094 16.4311C42.0061 20.1651 41.306 23.429 39.9263 26.1322Z" fill="white"/>
</svg>
