<svg width="31" height="30" viewBox="0 0 31 30" fill="none" xmlns="http://www.w3.org/2000/svg">
<g clip-path="url(#clip0_9_11)">
<path fill-rule="evenodd" clip-rule="evenodd" d="M2 6H8C8.82842 6 9.5 6.67158 9.5 7.5V28.5C9.5 29.3284 8.82842 30 8 30H2C1.17158 30 0.5 29.3284 0.5 28.5V7.5C0.5 6.67158 1.17158 6 2 6ZM3.5 19.5V25.5C3.5 26.3284 4.17158 27 5 27C5.82842 27 6.5 26.3284 6.5 25.5V19.5C6.5 18.6716 5.82842 18 5 18C4.17158 18 3.5 18.6716 3.5 19.5ZM12.5 0H18.5C19.3284 0 20 0.67158 20 1.5V28.5C20 29.3284 19.3284 30 18.5 30H12.5C11.6716 30 11 29.3284 11 28.5V1.5C11 0.67158 11.6716 0 12.5 0ZM14 16.5V25.5C14 26.3284 14.6715 27 15.5 27C16.3285 27 17 26.3284 17 25.5V16.5C17 15.6715 16.3285 15 15.5 15C14.6715 15 14 15.6715 14 16.5ZM23 3H29C29.8284 3 30.5 3.67158 30.5 4.5V28.5C30.5 29.3284 29.8284 30 29 30H23C22.1716 30 21.5 29.3284 21.5 28.5V4.5C21.5 3.67158 22.1716 3 23 3ZM24.5 22.5V25.5C24.5 26.3284 25.1716 27 26 27C26.8284 27 27.5 26.3284 27.5 25.5V22.5C27.5 21.6716 26.8284 21 26 21C25.1716 21 24.5 21.6716 24.5 22.5Z" fill="#23A7DF"/>
</g>
<defs>
<clipPath id="clip0_9_11">
<rect width="30" height="30" fill="white" transform="translate(0.5)"/>
</clipPath>
</defs>
</svg>
