<svg width="31" height="30" viewBox="0 0 31 30" fill="none" xmlns="http://www.w3.org/2000/svg">
<path d="M8.1875 9C8.375 9.1875 8.65625 9.28125 8.84375 9.28125C9.03125 9.28125 9.3125 9.1875 9.5 9C9.875 8.625 9.875 8.0625 9.5 7.6875L7.53125 5.71875C7.15625 5.34375 6.59375 5.34375 6.21875 5.71875C5.84375 6.09375 5.84375 6.65625 6.21875 7.03125L8.1875 9Z" fill="#23A7DF"/>
<path d="M7.0625 15C7.0625 14.4375 6.6875 14.0625 6.125 14.0625H3.3125C2.75 14.0625 2.375 14.4375 2.375 15C2.375 15.5625 2.75 15.9375 3.3125 15.9375H6.125C6.6875 15.9375 7.0625 15.5625 7.0625 15Z" fill="#23A7DF"/>
<path d="M8.1875 21L6.21875 22.9688C5.84375 23.3438 5.84375 23.9062 6.21875 24.2812C6.40625 24.4688 6.6875 24.5625 6.875 24.5625C7.0625 24.5625 7.34375 24.4688 7.53125 24.2812L9.5 22.3125C9.875 21.9375 9.875 21.375 9.5 21C9.125 20.625 8.5625 20.625 8.1875 21Z" fill="#23A7DF"/>
<path d="M28.0625 15.1875C27.6875 15 27.2188 15.0938 26.9375 15.4688C26.1875 16.4062 25.0625 16.875 23.9375 16.875C21.7812 16.875 19.9063 15.0938 19.9063 12.8438C19.9063 11.3438 20.75 10.0312 22.0625 9.28125C22.4375 9.09375 22.625 8.625 22.5312 8.25C22.4375 7.875 22.0625 7.5 21.5938 7.5C21.5 7.5 21.3125 7.5 21.2188 7.5C19.4375 7.5 17.75 8.15625 16.4375 9.1875V2.8125C16.4375 2.25 16.0625 1.875 15.5 1.875C14.9375 1.875 14.5625 2.25 14.5625 2.8125V7.59375C10.9062 8.0625 8 11.25 8 15C8 18.75 10.9062 21.9375 14.5625 22.4062V27.1875C14.5625 27.75 14.9375 28.125 15.5 28.125C16.0625 28.125 16.4375 27.75 16.4375 27.1875V20.8125C17.75 21.9375 19.4375 22.5 21.2188 22.5C24.9688 22.5 28.0625 19.7812 28.625 16.125C28.7188 15.75 28.4375 15.2813 28.0625 15.1875ZM16.4375 18.75C16.4375 19.3125 16.0625 19.6875 15.5 19.6875C14.9375 19.6875 14.5625 19.3125 14.5625 18.75V11.25C14.5625 10.6875 14.9375 10.3125 15.5 10.3125C16.0625 10.3125 16.4375 10.6875 16.4375 11.25V18.75Z" fill="#23A7DF"/>
</svg>
