<svg width="31" height="30" viewBox="0 0 31 30" fill="none" xmlns="http://www.w3.org/2000/svg">
<path d="M13.9 26.15C11.4896 26.15 9.13325 25.4353 7.12902 24.096C5.1248 22.7569 3.56269 20.8534 2.64025 18.6265C1.71781 16.3995 1.47645 13.949 1.94671 11.5849C2.41697 9.22072 3.57771 7.04912 5.28216 5.34467C6.98662 3.64021 9.15822 2.47947 11.5224 2.00921C13.8865 1.53895 16.337 1.78031 18.564 2.70275C20.7909 3.6252 22.6944 5.1873 24.0335 7.19152C25.3728 9.19575 26.0875 11.5521 26.0875 13.9625C26.0809 17.1928 24.7948 20.2889 22.5106 22.573C20.2264 24.8573 17.1303 26.1434 13.9 26.15ZM13.9 3.65004C11.862 3.65745 9.87191 4.26855 8.18096 5.4062C6.49002 6.54385 5.17409 8.15702 4.3993 10.042C3.62452 11.927 3.42564 13.9993 3.82777 15.9973C4.22991 17.9953 5.21502 19.8293 6.65874 21.2677C8.10245 22.7062 9.94001 23.6847 11.9394 24.0795C13.9388 24.4744 16.0104 24.268 17.8925 23.4864C19.7748 22.7048 21.3831 21.383 22.5146 19.6879C23.6461 17.9929 24.25 16.0005 24.25 13.9625C24.2484 12.6055 23.9793 11.2623 23.4581 10.0094C22.9369 8.75651 22.1739 7.61865 21.2126 6.66089C20.2514 5.70312 19.1108 4.94422 17.856 4.4276C16.6013 3.91097 15.257 3.64675 13.9 3.65004Z" fill="#23A7DF"/>
<path d="M17.1 28.2249C14.0217 28.2359 11.0529 27.0841 8.7875 24.9999C8.61493 24.8226 8.51837 24.5848 8.51837 24.3374C8.51837 24.0899 8.61493 23.8523 8.7875 23.6749C8.87036 23.5837 8.97038 23.5098 9.08183 23.4573C9.19328 23.4048 9.314 23.3748 9.43705 23.3691C9.5601 23.3632 9.6831 23.3817 9.799 23.4236C9.91488 23.4653 10.0214 23.5294 10.1125 23.6124C11.2146 24.6328 12.5263 25.4002 13.9559 25.861C15.3854 26.3216 16.8984 26.4644 18.3889 26.2796C19.8794 26.0946 21.3115 25.5862 22.5851 24.7901C23.8587 23.9939 24.9431 22.9292 25.7624 21.6704C26.5815 20.4116 27.1159 18.9889 27.328 17.5019C27.5401 16.0151 27.425 14.4998 26.9904 13.0621C26.5559 11.6243 25.8125 10.2988 24.8124 9.17834C23.8122 8.05782 22.5794 7.16931 21.2 6.57491C21.0837 6.52747 20.9785 6.45689 20.8904 6.36744C20.8024 6.27799 20.7334 6.17155 20.6877 6.05461C20.6422 5.93767 20.6209 5.81267 20.6251 5.68722C20.6294 5.56177 20.6591 5.4385 20.7125 5.32491C20.7614 5.20984 20.8327 5.1057 20.9224 5.01862C21.0121 4.93155 21.1184 4.86329 21.2349 4.81786C21.3512 4.77244 21.4756 4.75076 21.6006 4.75412C21.7256 4.75749 21.8486 4.7858 21.9625 4.83741C24.5297 5.95474 26.634 7.92192 27.9215 10.4082C29.209 12.8946 29.6011 15.7483 29.032 18.4897C28.4629 21.2311 26.9672 23.6929 24.7965 25.4613C22.6257 27.2297 19.9124 28.1968 17.1125 28.1999L17.1 28.2249Z" fill="#23A7DF"/>
<path d="M10.15 20.675C10.0151 20.6717 9.88253 20.6393 9.76132 20.5799C9.64011 20.5207 9.53312 20.4359 9.44767 20.3314C9.36223 20.227 9.30033 20.1054 9.26622 19.9748C9.23211 19.8443 9.22657 19.7079 9.25001 19.575L9.88751 15.8875L7.20001 13.2625C7.07316 13.1412 6.98348 12.9862 6.94142 12.8158C6.89937 12.6453 6.90668 12.4664 6.96251 12.3C7.01612 12.1347 7.11466 11.9875 7.24711 11.8749C7.37955 11.7623 7.54068 11.6888 7.71251 11.6625L11.4625 11.125L13.125 7.76252C13.2131 7.61766 13.337 7.49792 13.4847 7.41484C13.6325 7.33174 13.7992 7.28809 13.9687 7.28809C14.1382 7.28809 14.305 7.33174 14.4527 7.41484C14.6005 7.49792 14.7244 7.61766 14.8125 7.76252L16.4125 11.125L20.1625 11.6625C20.3344 11.6888 20.4955 11.7623 20.6279 11.8749C20.7604 11.9875 20.8589 12.1347 20.9125 12.3C20.9684 12.4664 20.9756 12.6453 20.9336 12.8158C20.8915 12.9862 20.8019 13.1412 20.675 13.2625L18 15.8875L18.6375 19.575C18.667 19.7488 18.6475 19.9274 18.5812 20.0908C18.515 20.254 18.4046 20.3958 18.2625 20.5C18.1201 20.6015 17.9521 20.6612 17.7776 20.6722C17.6031 20.6832 17.429 20.6453 17.275 20.5625L13.95 18.825L10.5875 20.5625C10.4534 20.636 10.303 20.6748 10.15 20.675ZM13.9 16.825C14.053 16.8253 14.2034 16.8639 14.3375 16.9375L16.4125 18.025L16.025 15.7125C16.0002 15.564 16.0111 15.4118 16.0569 15.2684C16.1025 15.1249 16.1815 14.9944 16.2875 14.8875L18 13.25L15.675 12.9125C15.5245 12.8888 15.3816 12.83 15.2579 12.741C15.1341 12.6519 15.033 12.5352 14.9625 12.4L13.925 10.2875L12.875 12.4C12.8062 12.5364 12.7055 12.6543 12.5815 12.7435C12.4574 12.8327 12.3137 12.8907 12.1625 12.9125L9.83751 13.25L11.525 14.8875C11.6327 14.9932 11.713 15.1237 11.7587 15.2674C11.8045 15.4112 11.8144 15.564 11.7875 15.7125L11.4 18.025L13.475 16.9375C13.6041 16.8628 13.7509 16.824 13.9 16.825Z" fill="#23A7DF"/>
</svg>
