<svg width="25" height="26" viewBox="0 0 25 26" fill="none" xmlns="http://www.w3.org/2000/svg">
<path id="Vector" d="M8.83387 3.46667H6.19387C4.55104 3.46667 3.72902 3.46667 3.10155 3.78639C2.5496 4.0676 2.10118 4.51602 1.81996 5.06797C1.50024 5.69544 1.50024 6.51746 1.50024 8.16029V19.307C1.50024 20.9498 1.50024 21.7708 1.81996 22.3983C2.10118 22.9502 2.5496 23.3994 3.10155 23.6806C3.7284 24 4.54943 24 6.18905 24H17.3448C18.9844 24 19.8042 24 20.4311 23.6806C20.983 23.3994 21.433 22.9497 21.7141 22.3978C22.0336 21.771 22.0336 20.9508 22.0336 19.3112V16.6667M23.5002 9.33333V2M23.5002 2H16.1669M23.5002 2L13.2336 12.2667" stroke="black" stroke-width="3" stroke-linecap="round" stroke-linejoin="round"/>
</svg>
